<svg width="146" height="64" viewBox="0 0 146 64" fill="none" xmlns="http://www.w3.org/2000/svg">
<g clip-path="url(#clip0_6368_20939)">
<path d="M31.1586 17.8324L25.7752 12.7517C23.6412 10.7397 20.2986 10.7397 18.1646 12.7517L12.7996 17.8139C11.6946 18.8591 11.0603 20.3278 11.0603 21.8472V27.9661C11.0603 30.7896 13.1829 33.1285 15.9166 33.4681C16.141 33.4957 16.3724 33.5095 16.6038 33.5095H27.7285C30.5843 33.5095 32.899 31.1948 32.899 28.3391V21.8656C32.8979 20.3439 32.2613 18.8752 31.1586 17.8324ZM27.9967 27.9661C27.9967 28.3195 27.7078 28.6096 27.351 28.6096H16.2262C16.0789 28.6096 15.9592 28.4887 15.9592 28.3425V21.8472C15.9592 21.6711 16.0328 21.5007 16.1629 21.3799L21.5256 16.3176C21.6511 16.2002 21.8076 16.1415 21.9676 16.1415C22.1276 16.1415 22.2864 16.199 22.4119 16.3176L27.793 21.3983C27.9231 21.5157 27.9967 21.6895 27.9967 21.8656V27.9661ZM31.1586 17.8324L25.7752 12.7517C23.6412 10.7397 20.2986 10.7397 18.1646 12.7517L12.7996 17.8139C11.6946 18.8591 11.0603 20.3278 11.0603 21.8472V27.9661C11.0603 30.7896 13.1829 33.1285 15.9166 33.4681C16.141 33.4957 16.3724 33.5095 16.6038 33.5095H27.7285C30.5843 33.5095 32.899 31.1948 32.899 28.3391V21.8656C32.8979 20.3439 32.2613 18.8752 31.1586 17.8324ZM27.9967 27.9661C27.9967 28.3195 27.7078 28.6096 27.351 28.6096H16.2262C16.0789 28.6096 15.9592 28.4887 15.9592 28.3425V21.8472C15.9592 21.6711 16.0328 21.5007 16.1629 21.3799L21.5256 16.3176C21.6511 16.2002 21.8076 16.1415 21.9676 16.1415C22.1276 16.1415 22.2864 16.199 22.4119 16.3176L27.793 21.3983C27.9231 21.5157 27.9967 21.6895 27.9967 21.8656V27.9661ZM31.1586 17.8324L25.7752 12.7517C23.6412 10.7397 20.2986 10.7397 18.1646 12.7517L12.7996 17.8139C11.6946 18.8591 11.0603 20.3278 11.0603 21.8472V27.9661C11.0603 30.7896 13.1829 33.1285 15.9166 33.4681C16.141 33.4957 16.3724 33.5095 16.6038 33.5095H27.7285C30.5843 33.5095 32.899 31.1948 32.899 28.3391V21.8656C32.8979 20.3439 32.2613 18.8752 31.1586 17.8324ZM27.9967 27.9661C27.9967 28.3195 27.7078 28.6096 27.351 28.6096H16.2262C16.0789 28.6096 15.9592 28.4887 15.9592 28.3425V21.8472C15.9592 21.6711 16.0328 21.5007 16.1629 21.3799L21.5256 16.3176C21.6511 16.2002 21.8076 16.1415 21.9676 16.1415C22.1276 16.1415 22.2864 16.199 22.4119 16.3176L27.793 21.3983C27.9231 21.5157 27.9967 21.6895 27.9967 21.8656V27.9661ZM31.1586 17.8324L25.7752 12.7517C23.6412 10.7397 20.2986 10.7397 18.1646 12.7517L12.7996 17.8139C11.6946 18.8591 11.0603 20.3278 11.0603 21.8472V27.9661C11.0603 30.7896 13.1829 33.1285 15.9166 33.4681C16.141 33.4957 16.3724 33.5095 16.6038 33.5095H27.7285C30.5843 33.5095 32.899 31.1948 32.899 28.3391V21.8656C32.8979 20.3439 32.2613 18.8752 31.1586 17.8324ZM27.9967 27.9661C27.9967 28.3195 27.7078 28.6096 27.351 28.6096H16.2262C16.0789 28.6096 15.9592 28.4887 15.9592 28.3425V21.8472C15.9592 21.6711 16.0328 21.5007 16.1629 21.3799L21.5256 16.3176C21.6511 16.2002 21.8076 16.1415 21.9676 16.1415C22.1276 16.1415 22.2864 16.199 22.4119 16.3176L27.793 21.3983C27.9231 21.5157 27.9967 21.6895 27.9967 21.8656V27.9661ZM40.8861 11.2852L37.3858 14.3988C37.2396 14.5289 37.2005 14.7407 37.2879 14.9168C38.4194 17.1958 39.0548 19.7615 39.0548 22.4745C39.0548 23.7119 38.9063 24.9216 38.5967 26.1429C38.287 27.3664 37.8151 28.6038 37.1717 29.8987C36.2957 31.6679 35.1919 33.3587 33.9914 35.0795C33.5494 35.7126 33.0912 36.3538 32.6297 37.0041C32.2901 37.4829 31.9471 37.9618 31.6099 38.4429C30.3633 40.212 29.1351 41.972 27.9576 43.7457C25.7672 47.0366 23.746 50.3711 22.0839 53.8772C20.8764 51.3886 19.3801 49.044 18.0414 46.9433C17.8123 46.5876 17.5879 46.2354 17.3726 45.8936C16.9168 45.1719 16.4426 44.4571 15.9592 43.7492C14.9693 42.3012 13.9402 40.8842 12.9342 39.4984C11.7659 37.8938 10.6333 36.3296 9.58126 34.7596C8.46705 33.0986 7.44378 31.4273 6.56783 29.6812C5.46284 27.4792 4.89997 25.054 4.89997 22.4745C4.89997 22.2938 4.90228 22.1142 4.90918 21.9335C5.19579 12.7678 12.7397 5.39998 21.9791 5.39998C26.1217 5.39998 29.9213 6.88252 32.8806 9.34344C33.0418 9.47696 33.2743 9.47581 33.4308 9.33769L36.8448 6.30469C32.929 2.70194 27.7032 0.5 21.9722 0.5C11.3688 0.5 2.492 8.05313 0.445452 18.0649C0.424733 18.1662 0.404012 18.2686 0.385596 18.3699C0.378689 18.3929 0.374086 18.4182 0.371784 18.4436C0.211789 19.2965 0.103589 20.1667 0.0460374 21.0495C0.0161103 21.5214 0 21.9957 0 22.4745C0 25.8229 0.735513 28.9871 2.18582 31.8797C2.89141 33.2885 3.68447 34.6502 4.52588 35.9774C4.52588 35.9797 4.52589 35.982 4.53049 35.9843C5.93016 38.1931 7.46564 40.3064 8.9689 42.376C10.4238 44.3765 11.9271 46.4461 13.2289 48.5087C13.4511 48.8575 13.6778 49.212 13.9092 49.5746C15.9258 52.7365 18.3407 56.52 19.2028 60.1158C19.2327 60.2401 19.2603 60.3679 19.288 60.4922C19.5539 61.7618 20.6566 62.6826 21.9572 62.6826H22.0643C23.327 62.6826 24.4113 61.809 24.7174 60.5831C25.0685 59.1628 25.7004 57.7251 26.3036 56.4221C28.7184 51.2022 31.9494 46.4679 35.6166 41.2629C35.9493 40.7887 36.2877 40.3168 36.6226 39.8449C37.395 38.7606 38.1788 37.6613 38.9282 36.5356C39.0318 36.3825 39.1342 36.2306 39.2332 36.0775C40.0769 34.7872 40.8757 33.46 41.5617 32.0719C42.7208 29.7387 43.4518 27.4608 43.7706 25.1691C43.7729 25.1645 43.7729 25.1599 43.7729 25.1553C43.8961 24.2644 43.9582 23.3723 43.9582 22.4722C43.9571 18.3895 42.8371 14.5646 40.8861 11.2852ZM25.7741 12.7517C23.6401 10.7397 20.2974 10.7397 18.1634 12.7517L12.7984 17.8139C11.6934 18.8591 11.0592 20.3278 11.0592 21.8472V27.9661C11.0592 30.7896 13.1817 33.1285 15.9154 33.4681C16.1399 33.4957 16.3712 33.5095 16.6026 33.5095H27.7274C30.5831 33.5095 32.8979 31.1948 32.8979 28.3391V21.8656C32.8979 20.3439 32.2613 18.8752 31.1586 17.8324L25.7741 12.7517ZM27.9967 27.9661C27.9967 28.3195 27.7078 28.6096 27.351 28.6096H16.2262C16.0789 28.6096 15.9592 28.4887 15.9592 28.3425V21.8472C15.9592 21.6711 16.0328 21.5007 16.1629 21.3799L21.5256 16.3176C21.6511 16.2002 21.8076 16.1415 21.9676 16.1415C22.1276 16.1415 22.2864 16.199 22.4119 16.3176L27.793 21.3983C27.9231 21.5157 27.9967 21.6895 27.9967 21.8656V27.9661ZM31.1586 17.8324L25.7752 12.7517C23.6412 10.7397 20.2986 10.7397 18.1646 12.7517L12.7996 17.8139C11.6946 18.8591 11.0603 20.3278 11.0603 21.8472V27.9661C11.0603 30.7896 13.1829 33.1285 15.9166 33.4681C16.141 33.4957 16.3724 33.5095 16.6038 33.5095H27.7285C30.5843 33.5095 32.899 31.1948 32.899 28.3391V21.8656C32.8979 20.3439 32.2613 18.8752 31.1586 17.8324ZM27.9967 27.9661C27.9967 28.3195 27.7078 28.6096 27.351 28.6096H16.2262C16.0789 28.6096 15.9592 28.4887 15.9592 28.3425V21.8472C15.9592 21.6711 16.0328 21.5007 16.1629 21.3799L21.5256 16.3176C21.6511 16.2002 21.8076 16.1415 21.9676 16.1415C22.1276 16.1415 22.2864 16.199 22.4119 16.3176L27.793 21.3983C27.9231 21.5157 27.9967 21.6895 27.9967 21.8656V27.9661ZM31.1586 17.8324L25.7752 12.7517C23.6412 10.7397 20.2986 10.7397 18.1646 12.7517L12.7996 17.8139C11.6946 18.8591 11.0603 20.3278 11.0603 21.8472V27.9661C11.0603 30.7896 13.1829 33.1285 15.9166 33.4681C16.141 33.4957 16.3724 33.5095 16.6038 33.5095H27.7285C30.5843 33.5095 32.899 31.1948 32.899 28.3391V21.8656C32.8979 20.3439 32.2613 18.8752 31.1586 17.8324ZM27.9967 27.9661C27.9967 28.3195 27.7078 28.6096 27.351 28.6096H16.2262C16.0789 28.6096 15.9592 28.4887 15.9592 28.3425V21.8472C15.9592 21.6711 16.0328 21.5007 16.1629 21.3799L21.5256 16.3176C21.6511 16.2002 21.8076 16.1415 21.9676 16.1415C22.1276 16.1415 22.2864 16.199 22.4119 16.3176L27.793 21.3983C27.9231 21.5157 27.9967 21.6895 27.9967 21.8656V27.9661ZM31.1586 17.8324L25.7752 12.7517C23.6412 10.7397 20.2986 10.7397 18.1646 12.7517L12.7996 17.8139C11.6946 18.8591 11.0603 20.3278 11.0603 21.8472V27.9661C11.0603 30.7896 13.1829 33.1285 15.9166 33.4681C16.141 33.4957 16.3724 33.5095 16.6038 33.5095H27.7285C30.5843 33.5095 32.899 31.1948 32.899 28.3391V21.8656C32.8979 20.3439 32.2613 18.8752 31.1586 17.8324ZM27.9967 27.9661C27.9967 28.3195 27.7078 28.6096 27.351 28.6096H16.2262C16.0789 28.6096 15.9592 28.4887 15.9592 28.3425V21.8472C15.9592 21.6711 16.0328 21.5007 16.1629 21.3799L21.5256 16.3176C21.6511 16.2002 21.8076 16.1415 21.9676 16.1415C22.1276 16.1415 22.2864 16.199 22.4119 16.3176L27.793 21.3983C27.9231 21.5157 27.9967 21.6895 27.9967 21.8656V27.9661ZM31.1586 17.8324L25.7752 12.7517C23.6412 10.7397 20.2986 10.7397 18.1646 12.7517L12.7996 17.8139C11.6946 18.8591 11.0603 20.3278 11.0603 21.8472V27.9661C11.0603 30.7896 13.1829 33.1285 15.9166 33.4681C16.141 33.4957 16.3724 33.5095 16.6038 33.5095H27.7285C30.5843 33.5095 32.899 31.1948 32.899 28.3391V21.8656C32.8979 20.3439 32.2613 18.8752 31.1586 17.8324ZM27.9967 27.9661C27.9967 28.3195 27.7078 28.6096 27.351 28.6096H16.2262C16.0789 28.6096 15.9592 28.4887 15.9592 28.3425V21.8472C15.9592 21.6711 16.0328 21.5007 16.1629 21.3799L21.5256 16.3176C21.6511 16.2002 21.8076 16.1415 21.9676 16.1415C22.1276 16.1415 22.2864 16.199 22.4119 16.3176L27.793 21.3983C27.9231 21.5157 27.9967 21.6895 27.9967 21.8656V27.9661Z" fill="#ED1C24"/>
<path d="M22.0839 53.8742L19.2016 60.1151C18.3395 56.5193 15.9258 52.7358 13.9092 49.575C13.6778 49.2125 13.4511 48.8568 13.2301 48.5092C11.9259 46.4465 10.4227 44.3769 8.97005 42.3764C6.56093 39.0614 4.07008 35.6325 2.18582 31.8778C0.736664 28.9864 0 25.8222 0 22.4738C0 21.995 0.0161092 21.5196 0.0448852 21.0488C0.940394 21.195 3.15039 21.6048 4.90918 21.9317C4.90343 22.1112 4.90112 22.2919 4.90112 22.4726C4.90112 25.0521 5.46284 27.4762 6.56783 29.6793C8.27252 33.0772 10.5366 36.1953 12.9354 39.4954C14.4352 41.5603 15.9845 43.6944 17.3726 45.8894C17.589 46.2324 17.8135 46.5823 18.0414 46.9392C19.3824 49.041 20.8764 51.3856 22.0839 53.8742Z" fill="#ED1C24"/>
<path d="M74.1243 34.2124C74.1243 36.8253 72.0478 38.3642 66.5527 38.3642C60.6916 38.3642 58.957 36.4098 58.957 33.7232V33.2594H62.2547V33.6991C62.2547 34.8708 62.8901 35.9701 66.5527 35.9701C69.8505 35.9701 71.3641 35.5799 71.3641 34.0893C71.3641 32.4767 69.7273 32.5262 66.113 32.2568C60.7883 32.0128 59.079 31.3291 59.079 28.5447C59.079 26.1264 60.862 24.5391 66.5527 24.5391C72.3897 24.5391 74.0506 26.4199 74.0506 29.1064V29.3758H70.7782V29.1559C70.7782 27.983 70.2407 26.8354 66.5527 26.8354C63.0847 26.8354 61.7897 27.2268 61.7897 28.692C61.7897 30.1331 63.255 30.109 66.8209 30.3772C72.2677 30.7927 74.1243 31.2324 74.1243 34.2124Z" fill="#ED1C24"/>
<path d="M89.4339 38.0957V35.751C88.3588 36.9228 86.4055 38.3639 82.0338 38.3639C78.3459 38.3639 76.3672 37.3866 76.3672 34.1867C76.3672 32.2334 77.417 30.5966 81.2764 30.4505L89.4097 30.4263V29.1809C89.4097 27.6672 88.3841 26.568 84.3543 26.568C81.0082 26.568 79.1274 27.3012 79.1274 29.1325H76.5871C76.5871 26.202 78.4679 24.541 84.3543 24.541C89.5317 24.541 92.1699 25.9579 92.1699 29.8404L92.194 38.0957H89.4339ZM89.4339 32.893L89.4097 32.2092L82.18 32.2334C80.0068 32.2829 79.0538 33.015 79.0538 34.1384C79.0538 35.5553 79.9815 36.2632 83.0111 36.2632C87.2124 36.2632 89.4339 34.8716 89.4339 32.893Z" fill="#ED1C24"/>
<path d="M99.9375 32.6727L98.2524 34.1864V38.0941H95.4922V19.5566H98.2524V31.0601L106.142 24.8077H109.756L101.842 30.8898L109.976 38.0953H106.312L99.9375 32.6727Z" fill="#ED1C24"/>
<path d="M124.724 38.0957V35.751C123.649 36.9228 121.696 38.3639 117.323 38.3639C113.635 38.3639 111.656 37.3866 111.656 34.1867C111.656 32.2334 112.706 30.5966 116.565 30.4505L124.699 30.4263V29.1809C124.699 27.6672 123.673 26.568 119.643 26.568C116.297 26.568 114.416 27.3012 114.416 29.1325H111.876C111.876 26.202 113.757 24.541 119.643 24.541C124.822 24.541 127.459 25.9579 127.459 29.8404L127.483 38.0957H124.724ZM124.724 32.893L124.7 32.2092L117.47 32.2334C115.297 32.2829 114.344 33.015 114.344 34.1384C114.344 35.5553 115.273 36.2632 118.3 36.2632C122.501 36.2632 124.724 34.8716 124.724 32.893Z" fill="#ED1C24"/>
<path d="M145.974 30.4497V38.0949H143.238V30.6695C143.238 29.1559 141.87 27.2014 138.353 27.2014C135.544 27.2014 133.59 28.6425 133.541 30.6695V38.0949H130.781V24.8073H133.541V27.3476C134.201 25.4426 136.961 24.5391 138.94 24.5391C143.384 24.5391 145.974 26.7376 145.974 30.4497Z" fill="#ED1C24"/>
<path d="M60.8352 45.1169L61.5938 42.8516H62.7022L61.352 46.0653V47.8943H60.3196V46.0653L58.9648 42.8516H60.0732L60.8352 45.1169Z" fill="#ED1C24"/>
<path d="M66.8561 45.827C66.8561 46.5038 66.696 47.0287 66.376 47.4028C66.056 47.7768 65.6118 47.9632 65.0444 47.9632C64.478 47.9632 64.0337 47.7779 63.7103 47.4073C63.3868 47.0366 63.2234 46.5175 63.2188 45.8499V44.9879C63.2188 44.2949 63.3788 43.7539 63.6999 43.3648C64.0211 42.9758 64.4665 42.7812 65.0363 42.7812C65.598 42.7812 66.0399 42.9724 66.3622 43.3545C66.6845 43.7367 66.8491 44.273 66.8537 44.9636V45.827H66.8561ZM65.835 44.9809C65.835 44.5262 65.7706 44.1879 65.6406 43.9658C65.5117 43.7436 65.3101 43.633 65.0373 43.633C64.7668 43.633 64.5677 43.74 64.4377 43.953C64.3076 44.1659 64.2408 44.4918 64.2362 44.928V45.8246C64.2362 46.2654 64.3019 46.59 64.4343 46.7995C64.5655 47.009 64.7693 47.1127 65.0444 47.1127C65.3102 47.1127 65.5071 47.0102 65.6371 46.8064C65.7661 46.6015 65.8316 46.2851 65.835 45.8558V44.9809Z" fill="#ED1C24"/>
<path d="M71.1188 42.8516V46.3427C71.1142 46.8665 70.9703 47.2682 70.686 47.5467C70.4017 47.8253 69.9943 47.9646 69.4636 47.9646C68.9238 47.9646 68.5106 47.8241 68.2251 47.5421C67.9397 47.2601 67.7969 46.8527 67.7969 46.3197V42.8516H68.8225V46.322C68.8225 46.6086 68.8685 46.8124 68.9606 46.9355C69.0527 47.0575 69.2208 47.1185 69.4625 47.1185C69.7042 47.1185 69.8711 47.0575 69.9609 46.9367C70.0507 46.8158 70.0967 46.6167 70.099 46.3393V42.8516H71.1188Z" fill="#ED1C24"/>
<path d="M73.6685 46.0515H73.1632V47.8943H72.1445V42.8516H73.7687C74.2786 42.8516 74.6734 42.984 74.9519 43.2487C75.2305 43.5135 75.3697 43.8887 75.3697 44.3756C75.3697 45.0455 75.1257 45.514 74.6388 45.7822L75.5217 47.846V47.8943H74.4271L73.6685 46.0515ZM73.1632 45.2032H73.7422C73.9448 45.2032 74.0979 45.1353 74.1991 45.0006C74.3004 44.866 74.3511 44.6852 74.3511 44.4585C74.3511 43.9532 74.1531 43.7 73.7583 43.7H73.1621V45.2032H73.1632Z" fill="#ED1C24"/>
<path d="M78.9718 46.1206V47.8943H77.9531V42.8516H79.6705C80.1689 42.8516 80.5671 43.0059 80.8641 43.3155C81.1611 43.6251 81.3096 44.0269 81.3096 44.5206C81.3096 45.0144 81.1634 45.4046 80.8699 45.6913C80.5763 45.9779 80.17 46.1206 79.6509 46.1206H78.9718ZM78.9718 45.2723H79.6716C79.8661 45.2723 80.0158 45.209 80.1217 45.0812C80.2276 44.9546 80.2805 44.7693 80.2805 44.5276C80.2805 44.2755 80.2264 44.0752 80.1182 43.9267C80.01 43.7782 79.8639 43.7023 79.682 43.7H78.9718V45.2723Z" fill="#ED1C24"/>
<path d="M83.7623 46.0515H83.257V47.8943H82.2383V42.8516H83.8625C84.3724 42.8516 84.7672 42.984 85.0457 43.2487C85.3243 43.5135 85.4636 43.8887 85.4636 44.3756C85.4636 45.0455 85.2195 45.514 84.7326 45.7822L85.6155 47.846V47.8943H84.5208L83.7623 46.0515ZM83.257 45.2032H83.836C84.0386 45.2032 84.1916 45.1353 84.2929 45.0006C84.3942 44.866 84.4449 44.6852 84.4449 44.4585C84.4449 43.9532 84.2469 43.7 83.8521 43.7H83.257V45.2032Z" fill="#ED1C24"/>
<path d="M89.9654 45.827C89.9654 46.5038 89.8054 47.0287 89.4854 47.4028C89.1654 47.7768 88.7211 47.9632 88.1537 47.9632C87.5874 47.9632 87.1431 47.7779 86.8196 47.4073C86.4962 47.0366 86.3327 46.5175 86.3281 45.8499V44.9879C86.3281 44.2949 86.4881 43.7539 86.8093 43.3648C87.1304 42.9758 87.5758 42.7812 88.1456 42.7812C88.7073 42.7812 89.1493 42.9724 89.4716 43.3545C89.7951 43.7367 89.9585 44.273 89.9631 44.9636V45.827H89.9654ZM88.9433 44.9809C88.9433 44.5262 88.8788 44.1879 88.7488 43.9658C88.6198 43.7436 88.4184 43.633 88.1456 43.633C87.8751 43.633 87.676 43.74 87.5459 43.953C87.4159 44.1659 87.3491 44.4918 87.3445 44.928V45.8246C87.3445 46.2654 87.4101 46.59 87.5425 46.7995C87.6737 47.009 87.8774 47.1127 88.1525 47.1127C88.4184 47.1127 88.6152 47.0102 88.7453 46.8064C88.8742 46.6015 88.9398 46.2851 88.9433 45.8558V44.9809Z" fill="#ED1C24"/>
<path d="M91.964 46.1206V47.8943H90.9453V42.8516H92.6627C93.1611 42.8516 93.5593 43.0059 93.8563 43.3155C94.1533 43.6251 94.3017 44.0269 94.3017 44.5206C94.3017 45.0144 94.1556 45.4046 93.862 45.6913C93.5685 45.9779 93.1622 46.1206 92.6431 46.1206H91.964ZM91.964 45.2723H92.6638C92.8583 45.2723 93.008 45.209 93.1139 45.0812C93.2198 44.9546 93.2727 44.7693 93.2727 44.5276C93.2727 44.2755 93.2186 44.0752 93.1104 43.9267C93.0022 43.7782 92.856 43.7023 92.6742 43.7H91.964V45.2723Z" fill="#ED1C24"/>
<path d="M97.8314 45.712H96.2453V47.0483H98.1226V47.8932H95.2266V42.8516H98.1157V43.7H96.2453V44.8913H97.8314V45.712Z" fill="#ED1C24"/>
<path d="M100.489 46.0515H99.9835V47.8943H98.9648V42.8516H100.589C101.099 42.8516 101.494 42.984 101.772 43.2487C102.051 43.5135 102.19 43.8887 102.19 44.3756C102.19 45.0455 101.946 45.514 101.459 45.7822L102.342 47.846V47.8943H101.247L100.489 46.0515ZM99.9835 45.2032H100.563C100.765 45.2032 100.918 45.1353 101.019 45.0006C101.121 44.866 101.171 44.6852 101.171 44.4585C101.171 43.9532 100.973 43.7 100.579 43.7H99.9823V45.2032H99.9835Z" fill="#ED1C24"/>
<path d="M106.229 43.7H104.982V47.8943H103.96V43.7H102.734V42.8516H106.229V43.7Z" fill="#ED1C24"/>
<path d="M108.64 45.1169L109.399 42.8516H110.507L109.157 46.0653V47.8943H108.124V46.0653L106.77 42.8516H107.878L108.64 45.1169Z" fill="#ED1C24"/>
<path d="M113.87 46.1206V47.8943H112.852V42.8516H114.569C115.067 42.8516 115.466 43.0059 115.763 43.3155C116.06 43.6251 116.208 44.0269 116.208 44.5206C116.208 45.0144 116.062 45.4046 115.768 45.6913C115.475 45.9779 115.068 46.1206 114.549 46.1206H113.87ZM113.87 45.2723H114.57C114.765 45.2723 114.914 45.209 115.02 45.0812C115.126 44.9546 115.179 44.7693 115.179 44.5276C115.179 44.2755 115.125 44.0752 115.017 43.9267C114.908 43.7782 114.762 43.7023 114.58 43.7H113.87V45.2723Z" fill="#ED1C24"/>
<path d="M118.154 47.0495H119.942V47.8943H117.137V42.8516H118.155L118.154 47.0495Z" fill="#ED1C24"/>
<path d="M123.253 46.8619H121.863L121.593 47.8943H120.516L122.091 42.8516H123.023L124.609 47.8943H123.521L123.253 46.8619ZM122.086 46.0135H123.028L122.558 44.2156L122.086 46.0135Z" fill="#ED1C24"/>
<path d="M128.182 43.7H126.934V47.8943H125.912V43.7H124.688V42.8516H128.182V43.7Z" fill="#ED1C24"/>
<path d="M131.617 45.8374H130.034V47.8943H129.016V42.8516H131.807V43.7H130.033V44.9914H131.616V45.8374H131.617Z" fill="#ED1C24"/>
<path d="M136.188 45.827C136.188 46.5038 136.028 47.0287 135.708 47.4028C135.388 47.7768 134.944 47.9632 134.376 47.9632C133.81 47.9632 133.366 47.7779 133.042 47.4073C132.719 47.0366 132.555 46.5175 132.551 45.8499V44.9879C132.551 44.2949 132.711 43.7539 133.032 43.3648C133.353 42.9758 133.799 42.7812 134.368 42.7812C134.93 42.7812 135.372 42.9724 135.694 43.3545C136.017 43.7367 136.181 44.273 136.186 44.9636V45.827H136.188ZM135.166 44.9809C135.166 44.5262 135.101 44.1879 134.971 43.9658C134.843 43.7436 134.641 43.633 134.368 43.633C134.098 43.633 133.899 43.74 133.769 43.953C133.64 44.1671 133.572 44.4918 133.567 44.928V45.8246C133.567 46.2654 133.633 46.59 133.765 46.7995C133.896 47.009 134.1 47.1127 134.375 47.1127C134.641 47.1127 134.838 47.0102 134.968 46.8064C135.097 46.6015 135.162 46.2851 135.166 45.8558V44.9809Z" fill="#ED1C24"/>
<path d="M138.696 46.0515H138.191V47.8943H137.172V42.8516H138.796C139.306 42.8516 139.701 42.984 139.979 43.2487C140.258 43.5135 140.397 43.8887 140.397 44.3756C140.397 45.0455 140.153 45.514 139.666 45.7822L140.549 47.846V47.8943H139.454L138.696 46.0515ZM138.191 45.2032H138.77C138.972 45.2032 139.125 45.1353 139.226 45.0006C139.328 44.866 139.378 44.6852 139.378 44.4585C139.378 43.9532 139.18 43.7 138.786 43.7H138.189V45.2032H138.191Z" fill="#ED1C24"/>
<path d="M142.677 42.8516L143.63 46.4993L144.578 42.8516H145.908V47.8943H144.886V46.5292L144.979 44.4274L143.97 47.8943H143.278L142.269 44.4274L142.362 46.5292V47.8943H141.344V42.8516H142.677Z" fill="#ED1C24"/>
</g>
<defs>
<clipPath id="clip0_6368_20939">
<rect width="146" height="63" fill="white" transform="translate(0 0.5)"/>
</clipPath>
</defs>
</svg>
